<svg width="96" height="96" viewBox="0 0 96 96" fill="none" xmlns="http://www.w3.org/2000/svg">
  <rect x="26" y="26" width="44" height="44" fill="#2B1D49"/>
  <rect x="34" y="34" width="28" height="28" fill="#FFD261"/>
  <rect x="40" y="40" width="16" height="16" fill="#2B1D49"/>
  <rect x="14" y="32" width="12" height="4" fill="#2B1D49"/>
  <rect x="14" y="44" width="12" height="4" fill="#2B1D49"/>
  <rect x="14" y="56" width="12" height="4" fill="#2B1D49"/>
  <rect x="70" y="32" width="12" height="4" fill="#2B1D49"/>
  <rect x="70" y="44" width="12" height="4" fill="#2B1D49"/>
  <rect x="70" y="56" width="12" height="4" fill="#2B1D49"/>
  <rect x="32" y="14" width="4" height="12" fill="#2B1D49"/>
  <rect x="44" y="14" width="4" height="12" fill="#2B1D49"/>
  <rect x="56" y="14" width="4" height="12" fill="#2B1D49"/>
  <rect x="32" y="70" width="4" height="12" fill="#2B1D49"/>
  <rect x="44" y="70" width="4" height="12" fill="#2B1D49"/>
  <rect x="56" y="70" width="4" height="12" fill="#2B1D49"/>
</svg>
