<svg width="1600" height="900" viewBox="0 0 1600 900" fill="none" xmlns="http://www.w3.org/2000/svg">
  <rect width="1600" height="900" fill="#2A0B56"/>
  <rect y="120" width="1600" height="180" fill="#6E1FC7"/>
  <rect y="300" width="1600" height="180" fill="#C537D5"/>
  <rect y="480" width="1600" height="160" fill="#FF8A73"/>
  <rect y="640" width="1600" height="260" fill="#FFE7B5"/>
  <rect x="660" y="90" width="130" height="130" fill="#FDF6DD"/>
  <rect x="700" y="90" width="40" height="18" fill="#2A0B56"/>
  <rect x="678" y="132" width="22" height="22" fill="#E1D9FC"/>
  <rect x="730" y="160" width="18" height="18" fill="#E1D9FC"/>
  <rect x="107" y="224" width="110" height="10" fill="#F8FBFF"/>
  <rect x="88" y="234" width="140" height="20" fill="#F8FBFF"/>
  <rect x="98" y="254" width="122" height="10" fill="#D1ECFF"/>
  <rect x="1124" y="190" width="110" height="10" fill="#F8FBFF"/>
  <rect x="1105" y="200" width="140" height="20" fill="#F8FBFF"/>
  <rect x="1115" y="220" width="122" height="10" fill="#D1ECFF"/>
  <rect x="1310" y="350" width="90" height="10" fill="#F8FBFF"/>
  <rect x="1295" y="360" width="118" height="20" fill="#F8FBFF"/>
  <rect x="1307" y="380" width="96" height="10" fill="#D1ECFF"/>
  <rect x="220" y="406" width="12" height="12" fill="#FFFDF7"/>
  <rect x="224" y="402" width="4" height="20" fill="#FFFDF7"/>
  <rect x="216" y="410" width="20" height="4" fill="#FFFDF7"/>
  <rect x="410" y="166" width="8" height="8" fill="#FFFDF7"/>
  <rect x="414" y="162" width="2" height="16" fill="#FFFDF7"/>
  <rect x="406" y="170" width="16" height="2" fill="#FFFDF7"/>
  <rect x="1180" y="460" width="10" height="10" fill="#FFFDF7"/>
  <rect x="1184" y="456" width="2" height="18" fill="#FFFDF7"/>
  <rect x="1176" y="464" width="18" height="2" fill="#FFFDF7"/>
  <rect x="80" y="650" width="180" height="90" fill="#6A3A1A"/>
  <rect x="130" y="610" width="80" height="40" fill="#8F5427"/>
  <rect x="98" y="668" width="24" height="24" fill="#FFCC70"/>
  <rect x="160" y="668" width="24" height="24" fill="#FFCC70"/>
  <rect x="500" y="600" width="120" height="170" fill="#3C1F52"/>
  <rect x="620" y="560" width="95" height="210" fill="#2C143E"/>
  <rect x="715" y="525" width="140" height="245" fill="#251036"/>
  <rect x="855" y="590" width="110" height="180" fill="#3C1F52"/>
  <rect x="1100" y="620" width="220" height="130" fill="#3D2255"/>
  <rect x="1040" y="750" width="320" height="45" fill="#5C9B3E"/>
  <rect x="0" y="770" width="1600" height="130" fill="#88C765"/>
  <rect x="0" y="800" width="1600" height="18" fill="#5C9B3E"/>
  <rect x="0" y="835" width="1600" height="18" fill="#5C9B3E"/>
  <rect x="1410" y="708" width="32" height="32" fill="#6D4822"/>
  <rect x="1442" y="708" width="32" height="32" fill="#6D4822"/>
  <rect x="1388" y="740" width="108" height="22" fill="#6D4822"/>
</svg>
