<svg width="1600" height="900" viewBox="0 0 1600 900" fill="none" xmlns="http://www.w3.org/2000/svg">
  <rect width="1600" height="900" fill="#D2F17E"/>
  <rect y="150" width="1600" height="170" fill="#BDE57F"/>
  <rect y="320" width="1600" height="180" fill="#FFE46E"/>
  <rect y="500" width="1600" height="170" fill="#FFF0AE"/>
  <rect y="670" width="1600" height="230" fill="#FDF7D8"/>
  <rect x="695" y="100" width="110" height="110" fill="#FFF7D4"/>
  <rect x="715" y="120" width="72" height="72" fill="#FFE05F"/>
  <rect x="160" y="180" width="92" height="10" fill="#F8FBFF"/>
  <rect x="143" y="190" width="124" height="22" fill="#F8FBFF"/>
  <rect x="154" y="212" width="102" height="10" fill="#CDE9FF"/>
  <rect x="1180" y="220" width="92" height="10" fill="#F8FBFF"/>
  <rect x="1163" y="230" width="124" height="22" fill="#F8FBFF"/>
  <rect x="1174" y="252" width="102" height="10" fill="#CDE9FF"/>
  <rect x="390" y="340" width="14" height="14" fill="#FFFDF7"/>
  <rect x="395" y="334" width="4" height="26" fill="#FFFDF7"/>
  <rect x="384" y="345" width="26" height="4" fill="#FFFDF7"/>
  <rect x="1250" y="380" width="10" height="10" fill="#FFFDF7"/>
  <rect x="1254" y="376" width="2" height="18" fill="#FFFDF7"/>
  <rect x="1246" y="384" width="18" height="2" fill="#FFFDF7"/>
  <rect x="0" y="720" width="1600" height="180" fill="#8BCB67"/>
  <rect x="0" y="760" width="1600" height="20" fill="#5CA13F"/>
  <rect x="0" y="800" width="1600" height="20" fill="#5CA13F"/>
  <rect x="140" y="675" width="130" height="95" fill="#7BC257"/>
  <rect x="250" y="650" width="160" height="120" fill="#73B34C"/>
  <rect x="980" y="690" width="220" height="80" fill="#7BC257"/>
  <rect x="1120" y="655" width="180" height="115" fill="#73B34C"/>
  <rect x="520" y="670" width="32" height="50" fill="#83511E"/>
  <rect x="492" y="624" width="88" height="56" fill="#56A34F"/>
  <rect x="540" y="586" width="16" height="38" fill="#56A34F"/>
  <rect x="1260" y="680" width="30" height="46" fill="#83511E"/>
  <rect x="1234" y="638" width="82" height="54" fill="#56A34F"/>
  <rect x="1276" y="602" width="16" height="36" fill="#56A34F"/>
  <rect x="770" y="702" width="70" height="16" fill="#8E5B23"/>
  <rect x="792" y="660" width="22" height="42" fill="#8E5B23"/>
  <rect x="730" y="716" width="150" height="18" fill="#8E5B23"/>
</svg>
